<mxfile host="app.diagrams.net" modified="2023-04-28T03:13:45.525Z" agent="Mozilla/5.0 (Windows NT 10.0; Win64; x64) AppleWebKit/537.36 (KHTML, like Gecko) Chrome/112.0.0.0 Safari/537.36" version="21.2.3" etag="fYXYb3moEcFzW3pe29dR" type="github">
  <diagram name="第 1 页" id="BTJDpwDUL7wlNcgI30eY">
    <mxGraphModel>
      <root>
        <mxCell id="0" />
        <mxCell id="1" parent="0" />
      </root>
    </mxGraphModel>
  </diagram>
</mxfile>
